<svg version="1.1" xmlns="http://www.w3.org/2000/svg" style="display: block;" viewBox="0 0 2048 2048" width="1024" height="1024" preserveAspectRatio="none">
<path transform="translate(0,0)" fill="rgb(27,56,90)" d="M 480.942 610.98 C 483.842 610.677 485.791 610.621 488.576 611.715 C 516.003 622.485 543.529 633.717 570.999 644.349 C 654.461 676.728 737.598 709.943 820.395 743.989 C 820.204 766.082 822.044 780.802 823.033 801.844 C 822.312 827.137 824.422 854.032 822.995 879.187 C 821.957 897.503 820.592 922.26 818.44 940.385 C 813.183 984.661 802.13 1029.27 790.914 1072.23 C 753.983 1213.67 660.708 1327.44 539.186 1406.03 C 523.307 1416.46 501.64 1428.16 484.992 1437.81 C 474.768 1434.14 457.013 1422.75 446.79 1416.73 C 381.232 1378.11 321.127 1328.45 274.258 1268.33 C 186.972 1156.36 150.841 1015.64 144.831 875.872 C 142.993 833.114 142.549 784.929 148.866 742.561 C 163.275 738.183 184.684 729.075 199.337 723.21 C 229.374 711.359 259.292 699.21 289.087 686.767 C 303.756 680.787 318.958 675.491 333.745 669.654 L 480.942 610.98 z M 272.632 1194.8 C 274.372 1188.7 285.22 1155.94 285.192 1151.88 C 279.195 1142.64 273.483 1130.02 269.315 1119.78 C 265.012 1110.27 256.599 1103.08 253.605 1094.83 C 248.534 1080.85 250.408 1070.55 245.363 1055.22 C 240.217 1039.23 236.837 1020.93 233.098 1004.43 C 216.487 931.117 213.289 867.317 216.027 792.866 C 223.086 788.309 251.356 777.955 260.049 775.406 C 262.652 773.293 264.822 773.066 268.076 772.243 C 289.009 762.351 320.495 751.342 342.399 742.702 L 484.319 685.964 C 489.335 686.374 498.546 690.397 503.465 692.512 C 568.413 720.432 634.545 745.005 700.265 770.953 C 715.586 777.001 738.551 786.035 752.715 793.959 C 753.467 811.88 753.185 829.907 752.367 847.903 C 749.282 915.733 744.681 983.223 724.739 1048.58 C 723.305 1053.28 722.173 1058.44 720.361 1062.94 C 715.913 1080.51 718.333 1093.03 705.73 1108.36 C 704.209 1110.2 699.592 1117.61 698.689 1119.46 C 693.698 1132.83 690.132 1140.22 683.404 1152.91 C 683.4 1157.91 693.224 1191.2 695.271 1197.3 C 726.342 1155.06 755.925 1063.39 768.417 1011.01 C 785.917 937.636 788.927 846.149 785.594 770.322 C 771.141 762.689 740.202 752.796 722.99 745.864 C 643.962 714.035 563.497 683.999 484.816 651.4 C 456.858 660.878 430.599 672.566 403.101 683.232 L 185.202 769.685 C 184.395 787.594 182.674 807.322 182.772 824.894 C 183.318 923.028 195.735 1023.2 232.467 1114.79 C 241.466 1137.23 258.59 1176.16 272.632 1194.8 z M 643.691 1217.07 C 616.517 1257.32 561.468 1303.75 521.669 1331.25 C 510.623 1338.88 495.814 1350.18 484.111 1356.11 C 483.73 1356.04 483.35 1355.97 482.969 1355.89 C 434.618 1323.71 384.916 1289.94 348.464 1244.1 C 338.373 1231.41 332.668 1226.75 326.634 1216.56 C 315.581 1218.93 302.077 1221.45 291.882 1225.87 C 324.298 1277.44 384.916 1329.16 434.771 1363.03 C 450.42 1373.67 469.524 1384.3 483.843 1394.88 C 494.992 1389.88 517.179 1375.14 527.706 1367.75 C 577.662 1332.69 622.272 1295.53 661.153 1248.01 C 667.166 1240.66 671.101 1233.95 676.474 1226.77 C 670.257 1224.73 648.376 1217.2 643.691 1217.07 z"/>
<path transform="translate(0,0)" fill="rgb(20,15,19)" fill-opacity="0.0117647" d="M 422.106 700.456 L 426.484 700.015 L 428.307 701.51 C 426.133 701.598 424.396 701.783 422.231 702.024 L 422.106 700.456 z"/>
<path transform="translate(0,0)" fill="rgb(197,210,220)" d="M 423.509 852.004 C 450.72 852.237 477.933 852.275 505.145 852.12 C 516.695 852.106 533.726 851.608 544.836 852.342 L 535.063 862.771 C 543.135 870.01 551.056 877.414 558.822 884.98 L 523.344 885.074 L 523.157 1201.55 C 511.81 1220.38 496.713 1247.2 484.681 1264.73 L 483.296 1264.1 C 470.526 1244.58 457.617 1221.03 444.988 1200.84 L 444.974 884.982 L 408.515 885.067 L 433.291 862.986 L 423.509 852.004 z"/>
<path transform="translate(0,0)" fill="rgb(254,254,253)" d="M 483.883 852.509 C 497.264 862.434 509.848 875.563 523.344 885.074 L 523.157 1201.55 C 511.81 1220.38 496.713 1247.2 484.681 1264.73 L 483.296 1264.1 C 484.368 1251.37 483.869 1228.95 483.902 1215.54 L 483.974 1126.09 L 483.883 852.509 z"/>
<path transform="translate(0,0)" fill="rgb(239,120,41)" d="M 484.319 685.964 C 489.335 686.374 498.546 690.397 503.465 692.512 C 568.413 720.432 634.545 745.005 700.265 770.953 C 715.586 777.001 738.551 786.035 752.715 793.959 C 753.467 811.88 753.185 829.907 752.367 847.903 C 749.282 915.733 744.681 983.223 724.739 1048.58 C 723.305 1053.28 722.173 1058.44 720.361 1062.94 C 718.374 1059.18 719.073 1051.68 718.775 1047.2 C 716.919 1020.45 725.184 987.186 710.654 963.442 C 701.199 947.991 688.697 942.882 674.813 933.18 C 673.374 932.175 676.529 931.486 677.112 928.027 C 669.784 919.706 654.378 906.832 645.399 898.152 C 659.05 883 674.591 866.222 689.157 851.89 C 696.953 844.219 711.566 844.007 718.831 834.618 C 724.761 826.953 727.815 817.031 726.849 807.513 C 725.783 797.099 720.483 787.581 712.192 781.19 C 690.311 764.231 669.67 775.377 655.672 795.263 C 599.624 796.333 540.351 795.252 483.953 795.364 C 483.922 759.81 483.162 721.285 484.319 685.964 z"/>
<path transform="translate(0,0)" fill="rgb(50,88,136)" d="M 268.076 772.243 C 289.009 762.351 320.495 751.342 342.399 742.702 L 484.319 685.964 C 483.162 721.285 483.922 759.81 483.953 795.364 C 476.567 794.928 468.055 794.909 460.662 795.022 C 411.321 795.777 361.611 794.265 312.318 795.381 C 303.273 780.864 295.837 773.186 278.155 773.864 C 274.57 774.001 271.285 773.913 268.076 772.243 z"/>
<path transform="translate(0,0)" fill="rgb(239,120,41)" d="M 575.769 1164.14 C 598.676 1187.33 611.55 1210.32 643.691 1217.07 C 616.517 1257.32 561.468 1303.75 521.669 1331.25 C 510.623 1338.88 495.814 1350.18 484.111 1356.11 C 483.908 1339.73 483.906 1323.36 484.105 1306.98 C 501.277 1281.68 527.936 1234.96 544.133 1207.45 C 546.114 1204.08 545.419 1175.15 545.391 1168.27 L 575.769 1164.14 z"/>
<path transform="translate(0,0)" fill="rgb(50,88,136)" d="M 394.079 1164.52 C 402.571 1165.48 414.264 1166.45 422.446 1167.87 C 422.534 1174.92 421.392 1200.64 423.297 1204.56 C 438.614 1236.09 465.531 1277.93 484.105 1306.98 C 483.906 1323.36 483.908 1339.73 484.111 1356.11 C 483.73 1356.04 483.35 1355.97 482.969 1355.89 C 434.618 1323.71 384.916 1289.94 348.464 1244.1 C 338.373 1231.41 332.668 1226.75 326.634 1216.56 C 368.401 1203.5 364.737 1187.63 394.079 1164.52 z"/>
<path transform="translate(0,0)" fill="rgb(50,88,136)" d="M 216.027 792.866 C 223.086 788.309 251.356 777.955 260.049 775.406 C 255.973 783.586 245.998 787.495 242.914 798.759 C 237.914 817.016 241.376 831.512 258.585 841.217 C 264.592 844.502 271.186 846.833 277.051 850.321 C 292.471 864.322 308.048 882.754 322.291 898.005 L 321.15 899.186 C 311.286 909.306 299.214 917.614 290.129 927.558 C 290.533 929.976 291.915 930.926 293.67 932.712 C 293.373 934.611 293.48 934.897 290.765 936.501 C 273.077 946.954 255.346 957.856 250.638 979.849 C 247.812 993.048 251.713 1043.93 247.927 1053.68 L 245.363 1055.22 C 240.217 1039.23 236.837 1020.93 233.098 1004.43 C 216.487 931.117 213.289 867.317 216.027 792.866 z"/>
<path transform="translate(0,0)" fill="rgb(254,254,253)" d="M 613.454 941.645 L 638.314 969.074 L 651.062 956.573 C 653.88 953.729 656.852 950.603 659.752 947.886 C 681.78 958.828 713.402 978.639 697.245 1008.33 C 683.768 1033.09 642.119 1048.43 616.589 1055.4 C 608.79 1057.58 600.892 1059.37 592.921 1060.79 L 582.849 1050.46 C 570.822 1037.93 557 1026.31 545.461 1013.24 L 558.183 999.818 C 560.627 997.078 563.544 994.184 566.117 991.512 L 582.187 974.66 C 585.827 970.462 588.049 968.169 592.055 964.382 C 598.879 956.546 606.195 949.079 613.454 941.645 z"/>
<path transform="translate(0,0)" fill="rgb(239,120,41)" d="M 558.183 999.818 L 559.823 1000.3 C 565.782 1001.99 571.703 1002.18 579.042 1003.69 C 598.263 1007.63 622.725 1012.66 636.988 1027.38 C 638.65 1029.1 638.101 1031.37 637.78 1033.35 C 630.578 1043.03 600.377 1047.93 588.634 1049.66 C 586.708 1049.94 584.78 1050.21 582.849 1050.46 C 570.822 1037.93 557 1026.31 545.461 1013.24 L 558.183 999.818 z"/>
<path transform="translate(0,0)" fill="rgb(239,120,41)" d="M 582.187 974.66 C 610.656 978.887 656.946 988.355 672.81 1015.06 L 673.786 1016.67 C 665.69 1024.24 658.046 1028.26 647.729 1032.47 C 638.022 1002.68 592.27 998.21 566.117 991.512 L 582.187 974.66 z"/>
<path transform="translate(0,0)" fill="rgb(239,120,41)" d="M 613.454 941.645 L 638.314 969.074 L 651.062 956.573 C 665.004 963.684 684.046 971.773 689.029 987.808 C 689.502 989.373 689.928 990.952 690.306 992.543 C 688.124 1000.89 687.131 1004.21 682.263 1011.76 C 666.702 982.86 622.713 970.058 592.055 964.382 C 598.879 956.546 606.195 949.079 613.454 941.645 z"/>
<path transform="translate(0,0)" fill="rgb(254,254,253)" d="M 355.079 941.469 C 361.77 948.626 369.846 956.856 376.063 964.263 C 379.443 967.544 383.262 971.046 386.295 974.599 C 392.203 980.631 396.724 985.804 402.193 992.264 L 410.172 1000.62 C 414.846 1005.24 418.026 1008.6 422.27 1013.6 C 410.066 1026.18 397.773 1038.67 385.393 1051.08 L 375.292 1060.99 C 367.603 1059.28 359.96 1057.37 352.372 1055.25 C 327.548 1048.4 284.102 1032.59 271.129 1008.53 C 267.075 1001.14 266.176 992.418 268.635 984.352 C 274.151 966.345 292.575 955.92 307.989 947.565 L 317.913 957.05 C 322.329 961.157 325.511 964.54 329.58 968.955 L 355.079 941.469 z"/>
<path transform="translate(0,0)" fill="rgb(239,120,41)" d="M 410.172 1000.62 C 414.846 1005.24 418.026 1008.6 422.27 1013.6 C 410.066 1026.18 397.773 1038.67 385.393 1051.08 C 370.531 1048.63 355.051 1045.09 340.769 1040.19 C 335.247 1038.29 331.799 1036.87 330.077 1031.21 C 333.719 1013.36 393.837 1002.28 410.172 1000.62 z"/>
<path transform="translate(0,0)" fill="rgb(239,120,41)" d="M 386.295 974.599 C 392.203 980.631 396.724 985.804 402.193 992.264 C 375.952 997.472 330.189 1003.46 321.554 1032.86 C 315.146 1029.94 300.054 1023.36 296.918 1017.53 C 295.7 992.546 367.58 977.917 386.295 974.599 z"/>
<path transform="translate(0,0)" fill="rgb(239,120,41)" d="M 355.079 941.469 C 361.77 948.626 369.846 956.856 376.063 964.263 C 343.995 971.323 304.657 981.274 286.449 1010.53 C 264.578 983.282 295.699 966.712 317.913 957.05 C 322.329 961.157 325.511 964.54 329.58 968.955 L 355.079 941.469 z"/>
<path transform="translate(0,0)" fill="rgb(254,254,253)" d="M 323.547 817.042 L 645.59 816.88 C 631.935 829.123 617.407 843.232 604.307 856.155 L 572.635 823.867 C 563.492 833.137 553.631 842.841 544.836 852.342 C 533.726 851.608 516.695 852.106 505.145 852.12 C 477.933 852.275 450.72 852.237 423.509 852.004 C 414.967 843.362 403.72 831.33 394.912 823.458 C 385.057 834.592 374.909 845.462 364.477 856.057 C 350.977 843.328 336.275 830.315 323.547 817.042 z"/>
<path transform="translate(0,0)" fill="rgb(254,254,253)" d="M 545.035 1041.39 C 573.397 1068.73 601.489 1096.34 629.305 1124.23 C 637.806 1132.71 657.122 1151.35 663.716 1160.28 C 667.88 1165.92 676.164 1196.85 678.993 1206.03 L 678.347 1207.58 L 677.722 1207.68 C 630.066 1194.18 632.181 1194.76 598.097 1159.63 C 580.405 1141.44 562.826 1123.13 545.363 1104.72 C 544.999 1091.91 545.207 1078.31 545.213 1065.43 L 545.035 1041.39 z"/>
<path transform="translate(0,0)" fill="rgb(197,210,220)" d="M 545.213 1065.43 C 545.379 1066.86 545.984 1071.65 546.834 1072.53 C 588.387 1115.77 630.687 1158.52 673.167 1200.9 C 674.938 1202.66 676.946 1205.33 677.722 1207.68 C 630.066 1194.18 632.181 1194.76 598.097 1159.63 C 580.405 1141.44 562.826 1123.13 545.363 1104.72 C 544.999 1091.91 545.207 1078.31 545.213 1065.43 z"/>
<path transform="translate(0,0)" fill="rgb(254,254,253)" d="M 422.96 1040.89 L 422.965 1066.86 L 422.902 1104.85 L 361.368 1168.8 C 358.033 1172.21 341.532 1189.44 338.825 1190.72 C 325.395 1197.05 305.347 1202.68 290.829 1207.48 L 289.638 1206.75 C 289.454 1204.3 301.556 1163.87 303.44 1161.5 C 313.802 1148.47 329.426 1134.06 341.467 1122.09 L 422.96 1040.89 z"/>
<path transform="translate(0,0)" fill="rgb(197,210,220)" d="M 422.965 1066.86 L 422.902 1104.85 L 361.368 1168.8 C 358.033 1172.21 341.532 1189.44 338.825 1190.72 C 325.395 1197.05 305.347 1202.68 290.829 1207.48 C 295.078 1200.8 299.875 1196.46 305.336 1190.84 C 344.065 1151.03 383.565 1111.89 422.1 1071.92 C 422.1 1071.92 422.884 1067.33 422.965 1066.86 z"/>
<path transform="translate(0,0)" fill="rgb(254,254,253)" d="M 698.776 1035.86 C 701.331 1038.29 700.314 1076.82 699.221 1082.46 C 696.173 1098.21 681.935 1107.16 669.498 1115.13 C 669.295 1102.26 675.336 1068.06 651.035 1076.16 C 644.986 1078.18 641.124 1084.71 638.499 1090.15 C 637.77 1094.85 637.65 1099.01 637.412 1103.75 C 628.916 1095.57 617.647 1085.75 610.385 1076.81 C 646.599 1067.7 669.577 1059.62 698.776 1035.86 z"/>
<path transform="translate(0,0)" fill="rgb(254,254,253)" d="M 268.859 1035.79 C 298.223 1059.23 322.553 1067.9 358.59 1077.2 L 331.09 1104.06 L 329.663 1092.24 C 327.297 1079.43 309.199 1066.83 300.986 1080.77 C 297.702 1086.35 298.907 1106.09 299.007 1114.05 C 260.721 1090.03 268.76 1076.73 268.859 1035.79 z"/>
<path transform="translate(0,0)" fill="rgb(197,210,220)" d="M 545.417 932.597 C 549.63 926.15 571.938 904.401 577.79 898.621 L 589.827 910.377 C 594.268 914.857 599.014 919.501 603.285 924.097 C 584.853 943.075 563.82 966.468 545.195 984.369 C 545.127 969.333 544.374 947.052 545.417 932.597 z"/>
<path transform="translate(0,0)" fill="rgb(254,254,253)" d="M 545.417 932.597 C 549.63 926.15 571.938 904.401 577.79 898.621 L 589.827 910.377 C 585.486 915.982 551.025 951.347 546.258 955.146 C 546.205 949.366 546.417 937.757 545.417 932.597 z"/>
<path transform="translate(0,0)" fill="rgb(197,210,220)" d="M 390.514 899.095 C 400.818 909.296 412.434 922.444 422.389 931.753 C 423.671 937.661 423.017 976.896 422.987 984.583 C 404.688 964.367 384.4 943.687 365.538 923.828 L 377.861 910.678 C 381.962 906.716 386.033 902.61 390.514 899.095 z"/>
<path transform="translate(0,0)" fill="rgb(254,254,253)" d="M 390.514 899.095 C 400.818 909.296 412.434 922.444 422.389 931.753 C 421.853 936.575 422.078 950.088 421.972 955.559 C 408.712 941.337 391.735 924.803 377.861 910.678 C 381.962 906.716 386.033 902.61 390.514 899.095 z"/>
<path transform="translate(0,0)" fill="rgb(239,120,41)" d="M 572.435 848.713 C 576.568 851.386 595.275 872.656 600.066 877.691 C 618.252 896.805 633.844 911.923 653.859 929.013 L 639.919 944.238 C 637.542 942.812 621.737 923.967 618.905 920.679 C 600.401 899.197 579.281 881.943 558.971 862.47 C 563.352 857.719 567.86 853.272 572.435 848.713 z"/>
<path transform="translate(0,0)" fill="rgb(239,120,41)" d="M 395.408 848.956 C 401.376 853.962 404.166 857.016 409.415 862.872 C 376.329 891.958 358.642 910.726 329.755 943.326 C 324.407 938.955 319.839 933.485 315.211 928.327 C 340.014 908.91 373.14 872.659 395.408 848.956 z"/>
<path transform="translate(0,0)" fill="rgb(239,120,41)" d="M 274.039 792.994 C 297.998 792.168 301.617 814.932 280.581 826.955 C 260.119 828.379 252.903 804.898 274.039 792.994 z"/>
<path transform="translate(0,0)" fill="rgb(239,120,41)" d="M 688.439 793.037 C 709.673 794.977 714.5 817.553 693.855 827.258 C 672.879 825.891 665.776 800.546 688.439 793.037 z"/>
<path transform="translate(0,0)" fill="rgb(239,120,41)" d="M 669.595 1137.04 C 676.113 1133.7 695.724 1120.2 698.689 1119.46 C 693.698 1132.83 690.132 1140.22 683.404 1152.91 C 678.6 1146.39 675.274 1142.92 669.595 1137.04 z"/>
<path transform="translate(0,0)" fill="rgb(50,88,136)" d="M 269.315 1119.78 C 274.985 1121.08 291.55 1132.92 298.34 1136.88 C 293.614 1141.8 289.03 1146.23 285.192 1151.88 C 279.195 1142.64 273.483 1130.02 269.315 1119.78 z"/>
<path transform="translate(0,0)" fill="rgb(239,120,41)" d="M 343.815 862.507 C 347.664 865.477 350.792 869.033 354.15 872.561 L 345.084 882.203 C 342.988 884.035 342.788 884.741 340.156 884.939 C 337.696 880.051 342.103 868.446 343.815 862.507 z"/>
<path transform="translate(0,0)" fill="rgb(239,120,41)" d="M 327.478 847.668 L 334.933 854.57 L 329.519 872.65 C 327.055 873.239 325.966 871.797 324.478 870.315 C 322.338 864.038 325.763 854.187 327.478 847.668 z"/>
<path transform="translate(0,0)" fill="rgb(239,120,41)" d="M 312.827 833.428 C 315.984 835.126 316.739 836.675 319.187 839.516 C 317.267 845.734 315.502 850.965 313.223 857.057 C 311.198 856.259 310.457 855.151 308.792 853.557 C 306.206 847.602 310.439 839.673 312.827 833.428 z"/>
<path transform="translate(0,0)" fill="rgb(239,120,41)" d="M 623.472 864.942 C 625.116 868.904 630.135 881.014 626.646 884.012 L 624.335 882.801 C 621.125 879.732 618.431 876.57 615.496 873.249 L 623.472 864.942 z"/>
<path transform="translate(0,0)" fill="rgb(239,120,41)" d="M 653.406 833.764 C 654.988 835.268 656.339 839.302 656.766 841.434 C 658.201 848.582 659.657 848.998 656.448 854.734 L 655.511 854.508 C 651.129 851.276 649.524 839.083 653.406 833.764 z"/>
<path transform="translate(0,0)" fill="rgb(254,254,253)" d="M 421.73 1134.86 C 424.574 1137.92 423.92 1143.1 421.685 1146.48 C 417.833 1148.53 418.526 1147.73 413.116 1146.89 C 412.107 1146.75 412.74 1146.91 411.365 1146 C 412.822 1142.96 419.004 1137.5 421.73 1134.86 z"/>
<path transform="translate(0,0)" fill="rgb(254,254,253)" d="M 545.71 1134.37 C 549.653 1137.47 554.351 1142.78 557.491 1146.64 C 553.223 1147.56 550.552 1148.53 546.881 1147.08 C 544.888 1143.85 545.611 1138.43 545.71 1134.37 z"/>
<path transform="translate(0,0)" fill="rgb(239,120,41)" d="M 300.359 824.707 L 301.408 825.849 C 301.611 829.941 300.902 838.653 296.986 840.571 C 293.997 836.891 294.26 838.208 293.486 834.015 C 294.453 830.238 297.604 827.624 300.359 824.707 z"/>
<path transform="translate(0,0)" fill="rgb(239,120,41)" d="M 637.839 850.532 L 639.393 851.939 C 641.559 857.427 644.103 864.2 641.821 869.839 C 638.027 864.929 634.843 856.302 637.839 850.532 z"/>
<path transform="translate(0,0)" fill="rgb(27,56,90)" d="M 1429.7 792.284 C 1449.71 792.221 1469.72 792.057 1489.72 791.791 C 1488.66 804.838 1489.28 819.744 1489.05 832.908 C 1488.53 863.964 1489.74 895.724 1489.14 926.71 C 1488.39 933.556 1488.39 940.943 1488.47 947.857 C 1488.84 977.792 1487.08 1008.32 1488.9 1038.16 C 1477.96 1037.55 1445.87 1037.49 1435.56 1039.26 C 1435.03 1035.49 1433.95 1025.65 1432.23 1022.98 C 1425.32 1024.72 1416.73 1029.25 1409.89 1032.15 C 1392.68 1039.56 1373.89 1042.6 1355.22 1041 C 1295.09 1036.14 1299.46 993.375 1300.46 947.6 C 1301.1 918.547 1294.02 886.067 1321.76 865.741 C 1327.63 861.417 1334.36 858.418 1341.5 856.951 C 1353.11 854.61 1417.02 855.83 1429.69 857.859 C 1430.39 837.23 1429.93 812.919 1429.7 792.284 z M 1359.84 983.311 C 1371.21 999.032 1376.07 992.032 1393.24 992.009 C 1408.17 990.214 1414.99 989.711 1429.28 984.87 C 1428.23 969.828 1429.57 951.857 1429.68 936.562 C 1429.76 925.305 1428.91 913.197 1429.61 902.141 C 1418.54 901.794 1408 901.048 1396.89 901.264 C 1388.54 902.321 1365.73 902.239 1363.36 906.254 C 1354.91 920.512 1360.49 966.511 1359.84 983.311 z"/>
<path transform="translate(0,0)" fill="rgb(239,120,41)" d="M 962.697 1072.43 C 976.875 1070.92 1003.7 1073.2 1020.85 1072.62 C 1024.94 1078.64 1033.84 1105.79 1037.61 1114.71 C 1056.3 1159.13 1072.53 1204.52 1089.75 1249.52 C 1092.74 1257.34 1116.31 1313.73 1114.78 1316.86 C 1106.22 1319.36 1062.5 1317.84 1049.65 1318.39 C 1047.77 1308.78 1037.22 1285.43 1033.17 1273.92 L 1010.75 1273.98 C 986.491 1274.07 964.462 1274.05 940.207 1272.86 C 936.262 1283.99 928.116 1319.04 914.252 1319.21 C 896.078 1319.42 877.076 1318.43 858.798 1318.4 C 861.479 1306.05 874.676 1275.42 879.798 1261.76 L 928.168 1135.75 C 935.565 1116.27 945.034 1093.35 951.012 1073.67 C 954.531 1073.09 959.068 1072.78 962.697 1072.43 z M 988.235 1227.93 C 997.973 1228.05 1008.9 1228.42 1018.54 1228.1 C 1010.92 1213.37 992.061 1147.83 986.735 1141.84 C 982.376 1152.39 955.863 1221.19 958.471 1227.74 C 964.375 1229.26 981.045 1228.16 988.235 1227.93 z"/>
<path transform="translate(0,0)" fill="rgb(27,56,90)" d="M 1131.97 852.271 C 1157.02 850.734 1195.73 851.307 1220.26 852.801 C 1280.03 860.451 1271.42 915.438 1271.01 957.348 C 1270.56 1002.74 1273.65 1032.53 1218.22 1041.77 C 1209.84 1042.81 1198.87 1042.4 1191.17 1042.64 C 1119.12 1044.46 1072.14 1044.86 1079.14 955.679 C 1082.82 908.722 1065.47 864.951 1131.97 852.271 z M 1138.88 981.447 C 1139.96 989.371 1141.69 990.149 1147.28 995.626 C 1161.44 997.819 1188.41 996.883 1203.81 996.736 L 1210.25 989.731 C 1213.45 959.691 1212.82 937.228 1211.97 906.806 L 1205.81 897.924 C 1185.45 897.837 1166.69 897.272 1146.11 897.717 C 1142.62 901.623 1141.14 902.882 1138.96 907.65 C 1140.86 917.295 1139.8 968.934 1138.88 981.447 z"/>
<path transform="translate(0,0)" fill="rgb(29,52,79)" d="M 1138.96 907.65 C 1140.86 917.295 1139.8 968.934 1138.88 981.447 C 1134.3 974.758 1135.07 917.149 1138.96 907.65 z"/>
<path transform="translate(0,0)" fill="rgb(27,56,90)" d="M 1581.07 852.306 C 1605.93 851.421 1635.07 851.037 1659.31 852.277 C 1718.37 855.298 1713.16 903.345 1713 943.944 C 1712.8 996.764 1720.39 1039.65 1652.25 1042.53 C 1641.38 1043.17 1630.63 1042.7 1619.31 1042.9 C 1586.07 1044.13 1530.11 1043.32 1523.88 999.659 C 1520.85 978.422 1524.62 947.426 1523.02 925.089 C 1521.79 908 1522.42 887.916 1532.9 873.682 C 1545.72 856.276 1561.35 855.042 1581.07 852.306 z M 1588.68 896.883 C 1586.2 899.776 1583.57 902.978 1581.04 905.779 C 1580.87 931.588 1580.2 963.213 1581.9 988.635 L 1589.97 996.137 L 1598.75 995.939 C 1614.63 995.956 1630.52 995.893 1646.4 995.75 C 1654.38 986.85 1655.77 977.867 1655.3 966.195 C 1654.49 945.852 1658.32 919.952 1651.12 901.052 C 1645.03 897.736 1642.13 895.535 1635.15 896.494 C 1625.67 897.201 1597.71 898.06 1588.68 896.883 z"/>
<path transform="translate(0,0)" fill="rgb(239,120,41)" d="M 1466.88 1314.31 C 1454.06 1314.87 1440.99 1317.07 1428.16 1317.66 C 1389.53 1319.42 1326.63 1335.38 1300.57 1297.36 C 1296.26 1291.05 1293.38 1283.89 1292.11 1276.36 C 1287.56 1250.42 1292.05 1204.33 1292.17 1177.08 C 1292.25 1159.34 1314.81 1133.21 1332.88 1133.36 C 1360.38 1133.6 1404.55 1128.92 1430.88 1134.01 C 1443.78 1138.17 1453.84 1141.29 1462.27 1152.96 C 1478.09 1185.76 1473.16 1211.48 1472.97 1247.43 C 1435.04 1245.67 1388.58 1247.9 1349.99 1248.13 C 1349.83 1255.62 1350.07 1262.12 1350.4 1269.62 C 1353.34 1273.17 1356.53 1275.28 1360.19 1278.07 C 1377.26 1277.98 1401.44 1278.62 1417.96 1277.47 C 1435.6 1276.25 1447.07 1274.31 1466.08 1274.07 C 1467.22 1287.3 1467.24 1301.03 1466.88 1314.31 z M 1349.87 1184.4 L 1350.41 1208.84 C 1356.81 1208.02 1359.77 1207.8 1366.25 1207.82 C 1381.61 1207.77 1398.48 1208.04 1413.71 1207.37 C 1413.83 1199.16 1413.94 1187.42 1412.64 1179.55 C 1409.94 1176.35 1408.32 1173.73 1404.51 1172.19 L 1401.1 1172.51 C 1387.2 1174.13 1365.2 1168.73 1354.58 1178.04 C 1353.76 1178.75 1350.7 1183.22 1349.87 1184.4 z"/>
<path transform="translate(0,0)" fill="rgb(239,120,41)" d="M 1827.36 1131.44 C 1844.41 1128.25 1875.58 1133.91 1888.27 1146.76 C 1907.24 1165.95 1902.99 1197.09 1903.22 1221.65 L 1903.9 1318.76 L 1849.56 1319.02 L 1847.37 1302.19 C 1819.72 1316.52 1794.47 1327.55 1762.71 1321.32 C 1745.18 1317.88 1737.85 1310.51 1728.46 1296.48 C 1723.38 1289.26 1721.84 1282.76 1721.03 1274.02 C 1713.12 1188.51 1781.27 1204.14 1843.5 1202.92 C 1844.43 1194.73 1845.82 1185.97 1841.13 1179.12 C 1832.3 1172.61 1753.01 1178.81 1737.98 1179.7 L 1738.08 1138.72 C 1749.89 1138.16 1761.83 1135.17 1772.85 1134.77 C 1791.23 1134.1 1809.11 1132.6 1827.36 1131.44 z M 1787.26 1277.6 L 1803.55 1278.92 C 1817.35 1275.91 1829.92 1271.52 1843.47 1267.82 C 1843.64 1260.02 1843.65 1252.22 1843.49 1244.42 C 1837.76 1243.81 1826.2 1242.73 1820.48 1243.5 C 1794.48 1244.1 1776.87 1235.58 1778.23 1267.47 L 1787.26 1277.6 z"/>
<path transform="translate(0,0)" fill="rgb(239,120,41)" d="M 1610.27 1133.23 C 1631.45 1132.76 1661.47 1129.47 1677.64 1145.73 C 1697.68 1165.88 1693.84 1203.75 1693.92 1229.46 L 1694.15 1317.81 C 1675 1318.46 1652.93 1317.93 1634.91 1318.82 C 1632.71 1277.44 1637.77 1231.12 1633.18 1189.63 C 1632.8 1186.15 1628.54 1183.16 1625.44 1181.73 C 1609.27 1174.23 1587.81 1181.89 1572.78 1187 L 1565.92 1190.37 L 1566.01 1318.54 L 1506.87 1318.68 C 1505.96 1295.26 1506.55 1269.38 1506.61 1245.79 C 1506.65 1208.7 1506.42 1171.62 1505.93 1134.53 C 1523.61 1135.41 1540.91 1133.92 1558.64 1134.31 C 1559.28 1138.53 1560.35 1149.56 1563.11 1152.02 C 1576.86 1149.33 1594.01 1137.01 1610.27 1133.23 z"/>
<path transform="translate(0,0)" fill="rgb(27,56,90)" d="M 882.264 792.487 L 1021.46 792.884 C 1037.49 792.895 1078.39 793.885 1093.17 792.227 C 1091.59 808.226 1092.65 822.989 1092.63 838.941 C 1069.43 839.493 1041.57 837.925 1018.98 840.318 L 1019.03 964.862 C 1019.18 989.498 1018.09 1013.26 1017.54 1037.87 C 1003.84 1036.58 971.862 1037.68 957.102 1037.95 L 956.613 839.083 C 931.843 838.967 907.072 839.047 882.303 839.323 C 882.151 823.711 882.138 808.099 882.264 792.487 z"/>
<path transform="translate(0,0)" fill="rgb(239,120,41)" d="M 1264.16 1132.51 C 1267.38 1132.24 1266.09 1131.75 1268.46 1133.09 C 1269.47 1137.52 1268.98 1174.95 1268.96 1182.42 C 1256.17 1185.01 1248.09 1183.69 1235.4 1183.81 C 1221.38 1183.94 1207.02 1189.82 1194.3 1195.14 C 1195.62 1236.44 1195.7 1276.5 1194.67 1317.77 L 1193.62 1317.87 C 1176.83 1319.6 1153.98 1317.91 1134.91 1319.22 L 1134.73 1304.75 L 1134.24 1134.02 C 1152.37 1135.35 1172.02 1134.51 1190.49 1134.9 L 1190.78 1159.95 C 1195.1 1156.81 1200.21 1151.93 1204.71 1148.52 C 1225.94 1132.4 1239.14 1132.65 1264.16 1132.51 z"/>
<path transform="translate(0,0)" fill="rgb(29,52,79)" fill-opacity="0.984314" d="M 1489.14 926.71 C 1490.14 938.353 1489.96 951.614 1490.33 963.454 C 1491.07 987.186 1494.82 1015.03 1488.9 1038.16 C 1487.08 1008.32 1488.84 977.792 1488.47 947.857 C 1488.39 940.943 1488.39 933.556 1489.14 926.71 z"/>
</svg>